<?xml version="1.0" encoding="UTF-8"?>
<svg width="32px" height="32px" viewBox="0 0 32 32" version="1.1" xmlns="http://www.w3.org/2000/svg" xmlns:xlink="http://www.w3.org/1999/xlink">
    <title>Figma to Code Logo</title>
    <g stroke="none" stroke-width="1" fill="none" fill-rule="evenodd">
        <circle fill="#7C3AED" cx="16" cy="16" r="16"></circle>
        <path d="M10.6667,21.3333 C12.5076,21.3333 14,19.841 14,18 C14,16.159 12.5076,14.6667 10.6667,14.6667 C8.82573,14.6667 7.33333,16.159 7.33333,18 C7.33333,19.841 8.82573,21.3333 10.6667,21.3333 Z M10.6667,14.6667 C12.5076,14.6667 14,13.1743 14,11.3333 C14,9.49238 12.5076,8 10.6667,8 C8.82573,8 7.33333,9.49238 7.33333,11.3333 C7.33333,13.1743 8.82573,14.6667 10.6667,14.6667 Z M18,21.3333 C19.841,21.3333 21.3333,19.841 21.3333,18 C21.3333,16.159 19.841,14.6667 18,14.6667 C16.159,14.6667 14.6667,16.159 14.6667,18 C14.6667,19.841 16.159,21.3333 18,21.3333 Z M18,14.6667 C19.841,14.6667 21.3333,13.1743 21.3333,11.3333 C21.3333,9.49238 19.841,8 18,8 C16.159,8 14.6667,9.49238 14.6667,11.3333 C14.6667,13.1743 16.159,14.6667 18,14.6667 Z M18,24 C16.159,24 14.6667,22.5076 14.6667,20.6667 C14.6667,18.8257 16.159,17.3333 18,17.3333 C19.841,17.3333 21.3333,18.8257 21.3333,20.6667 C21.3333,22.5076 19.841,24 18,24 Z" fill="#FFFFFF" fill-rule="nonzero"></path>
    </g>
</svg>
