<?xml version="1.0" encoding="UTF-8"?>
<svg width="200px" height="200px" viewBox="0 0 200 200" version="1.1" xmlns="http://www.w3.org/2000/svg" xmlns:xlink="http://www.w3.org/1999/xlink">
    <title>Hands-On Experience</title>
    <g stroke="none" stroke-width="1" fill="none" fill-rule="evenodd">
        <circle fill="#7C3AED" cx="100" cy="100" r="100"></circle>
        <g transform="translate(40, 50)" fill="#FFFFFF">
            <path d="M30,0 C46.5685425,0 60,13.4314575 60,30 C60,39.7 54.7,48.1 46.7,52.6 C58.5,58.2 66.7,70.3 67.9,84.3 L68,86.7 L68,90 L52,90 L52,86.7 C52,74.1 42.8,63.7 30.7,62.1 L30,62 L29.3,62 C16.5,63.5 6.8,74.5 6,87.9 L6,90 L-10,90 L-10,86.7 C-10,71.6 -0.4,58.4 13.3,52.6 C5.3,48.1 0,39.7 0,30 C0,13.4314575 13.4314575,0 30,0 Z M90,0 C106.568542,0 120,13.4314575 120,30 C120,39.7 114.7,48.1 106.7,52.6 C118.5,58.2 126.7,70.3 127.9,84.3 L128,86.7 L128,90 L112,90 L112,86.7 C112,74.1 102.8,63.7 90.7,62.1 L90,62 L89.3,62 C76.5,63.5 66.8,74.5 66,87.9 L66,90 L50,90 L50,86.7 C50,71.6 59.6,58.4 73.3,52.6 C65.3,48.1 60,39.7 60,30 C60,13.4314575 73.4314575,0 90,0 Z M30,16 C22.2680135,16 16,22.2680135 16,30 C16,37.7319865 22.2680135,44 30,44 C37.7319865,44 44,37.7319865 44,30 C44,22.2680135 37.7319865,16 30,16 Z M90,16 C82.2680135,16 76,22.2680135 76,30 C76,37.7319865 82.2680135,44 90,44 C97.7319865,44 104,37.7319865 104,30 C104,22.2680135 97.7319865,16 90,16 Z"></path>
        </g>
    </g>
</svg>
