<?xml version="1.0" encoding="UTF-8"?>
<svg width="200px" height="200px" viewBox="0 0 200 200" version="1.1" xmlns="http://www.w3.org/2000/svg" xmlns:xlink="http://www.w3.org/1999/xlink">
    <title>AI-Powered Development</title>
    <g stroke="none" stroke-width="1" fill="none" fill-rule="evenodd">
        <circle fill="#7C3AED" cx="100" cy="100" r="100"></circle>
        <g transform="translate(50, 50)" fill="#FFFFFF">
            <path d="M80,0 C91.045695,0 100,8.954305 100,20 L100,80 C100,91.045695 91.045695,100 80,100 L20,100 C8.954305,100 0,91.045695 0,80 L0,20 C0,8.954305 8.954305,0 20,0 L80,0 Z M50,20 C33.4314575,20 20,33.4314575 20,50 C20,66.5685425 33.4314575,80 50,80 C66.5685425,80 80,66.5685425 80,50 C80,33.4314575 66.5685425,20 50,20 Z M50,30 C61.045695,30 70,38.954305 70,50 C70,61.045695 61.045695,70 50,70 C38.954305,70 30,61.045695 30,50 C30,38.954305 38.954305,30 50,30 Z M50,40 C44.4771525,40 40,44.4771525 40,50 C40,55.5228475 44.4771525,60 50,60 C55.5228475,60 60,55.5228475 60,50 C60,44.4771525 55.5228475,40 50,40 Z"></path>
        </g>
    </g>
</svg>
