<svg viewBox="0 0 700 200" xmlns="http://www.w3.org/2000/svg">
  <defs>
    <linearGradient id="blueGradient" x1="0%" y1="0%" x2="100%" y2="0%">
      <stop offset="0%" style="stop-color:#0066CC;stop-opacity:1" />
      <stop offset="100%" style="stop-color:#0099FF;stop-opacity:1" />
    </linearGradient>
    <linearGradient id="tealGradient" x1="0%" y1="0%" x2="100%" y2="0%">
      <stop offset="0%" style="stop-color:#00B4D8;stop-opacity:1" />
      <stop offset="100%" style="stop-color:#00D4AA;stop-opacity:1" />
    </linearGradient>
    <filter id="shadow" x="-20%" y="-20%" width="140%" height="140%">
      <feDropShadow dx="2" dy="2" stdDeviation="3" flood-color="#000000" flood-opacity="0.15"/>
    </filter>
  </defs>
  
  <!-- Background -->
  <rect width="700" height="200" fill="#FAFBFC" rx="10"/>
  
  <!-- Title -->
  <text x="350" y="25" text-anchor="middle" font-family="Inter, system-ui, sans-serif" font-size="16" font-weight="600" fill="#1B2937">
    Design-to-Code Workflow
  </text>
  
  <!-- Step 1: Figma Design -->
  <g transform="translate(20, 50)">
    <rect width="100" height="80" rx="8" fill="url(#blueGradient)" filter="url(#shadow)"/>
    <circle cx="50" cy="40" r="20" fill="white" opacity="0.9"/>
    <path d="M40 30 L60 30 L60 50 L40 50 Z M42 32 L58 32 L58 48 L42 48 Z" fill="#0066CC"/>
    <text x="50" y="60" text-anchor="middle" font-family="Inter, system-ui, sans-serif" font-size="10" font-weight="500" fill="white">
      Figma Design
    </text>
    <text x="50" y="145" text-anchor="middle" font-family="Inter, system-ui, sans-serif" font-size="12" font-weight="400" fill="#374151">
      Component Design
    </text>
  </g>
  
  <!-- Arrow 1 -->
  <path d="M130 90 L160 90" stroke="#6B7280" stroke-width="2" marker-end="url(#arrowhead)"/>
  
  <!-- Step 2: AI Analysis -->
  <g transform="translate(170, 50)">
    <rect width="100" height="80" rx="8" fill="url(#tealGradient)" filter="url(#shadow)"/>
    <circle cx="50" cy="40" r="20" fill="white" opacity="0.9"/>
    <circle cx="50" cy="40" r="12" fill="#00B4D8"/>
    <circle cx="46" cy="36" r="3" fill="white"/>
    <circle cx="54" cy="36" r="3" fill="white"/>
    <path d="M42 45 Q50 50 58 45" stroke="white" stroke-width="2" fill="none"/>
    <text x="50" y="60" text-anchor="middle" font-family="Inter, system-ui, sans-serif" font-size="10" font-weight="500" fill="white">
      AI Analysis
    </text>
    <text x="50" y="145" text-anchor="middle" font-family="Inter, system-ui, sans-serif" font-size="12" font-weight="400" fill="#374151">
      Pattern Recognition
    </text>
  </g>
  
  <!-- Arrow 2 -->
  <path d="M280 90 L310 90" stroke="#6B7280" stroke-width="2" marker-end="url(#arrowhead)"/>
  
  <!-- Step 3: Code Generation -->
  <g transform="translate(320, 50)">
    <rect width="100" height="80" rx="8" fill="url(#blueGradient)" filter="url(#shadow)"/>
    <circle cx="50" cy="40" r="20" fill="white" opacity="0.9"/>
    <rect x="40" y="30" width="20" height="20" rx="2" fill="#0066CC"/>
    <text x="50" y="42" text-anchor="middle" font-family="Courier, monospace" font-size="8" font-weight="600" fill="white">
      &lt;/&gt;
    </text>
    <text x="50" y="60" text-anchor="middle" font-family="Inter, system-ui, sans-serif" font-size="10" font-weight="500" fill="white">
      Code Generation
    </text>
    <text x="50" y="145" text-anchor="middle" font-family="Inter, system-ui, sans-serif" font-size="12" font-weight="400" fill="#374151">
      Framework Output
    </text>
  </g>
  
  <!-- Arrow 3 -->
  <path d="M430 90 L460 90" stroke="#6B7280" stroke-width="2" marker-end="url(#arrowhead)"/>
  
  <!-- Step 4: Design System -->
  <g transform="translate(470, 50)">
    <rect width="100" height="80" rx="8" fill="url(#tealGradient)" filter="url(#shadow)"/>
    <circle cx="50" cy="40" r="20" fill="white" opacity="0.9"/>
    <circle cx="50" cy="40" r="8" fill="#00B4D8"/>
    <circle cx="42" cy="32" r="4" fill="#00B4D8"/>
    <circle cx="58" cy="32" r="4" fill="#00B4D8"/>
    <circle cx="42" cy="48" r="4" fill="#00B4D8"/>
    <circle cx="58" cy="48" r="4" fill="#00B4D8"/>
    <text x="50" y="60" text-anchor="middle" font-family="Inter, system-ui, sans-serif" font-size="10" font-weight="500" fill="white">
      Design System
    </text>
    <text x="50" y="145" text-anchor="middle" font-family="Inter, system-ui, sans-serif" font-size="12" font-weight="400" fill="#374151">
      Component Library
    </text>
  </g>
  
  <!-- Arrow 4 -->
  <path d="M580 90 L610 90" stroke="#6B7280" stroke-width="2" marker-end="url(#arrowhead)"/>
  
  <!-- Step 5: Production -->
  <g transform="translate(620, 50)">
    <rect width="60" height="80" rx="8" fill="url(#blueGradient)" filter="url(#shadow)"/>
    <circle cx="30" cy="40" r="20" fill="white" opacity="0.9"/>
    <path d="M20 30 L40 30 L40 35 L35 40 L40 45 L40 50 L20 50 Z" fill="#0066CC"/>
    <text x="30" y="60" text-anchor="middle" font-family="Inter, system-ui, sans-serif" font-size="9" font-weight="500" fill="white">
      Production
    </text>
    <text x="30" y="145" text-anchor="middle" font-family="Inter, system-ui, sans-serif" font-size="12" font-weight="400" fill="#374151">
      Live App
    </text>
  </g>
  
  <!-- Arrow markers -->
  <defs>
    <marker id="arrowhead" markerWidth="10" markerHeight="7" refX="9" refY="3.5" orient="auto">
      <polygon points="0 0, 10 3.5, 0 7" fill="#6B7280"/>
    </marker>
  </defs>
  
  <!-- Accessibility -->
  <title>Design-to-Code Process Diagram</title>
  <desc>A workflow diagram showing 5 steps: Figma Design for component design, AI Analysis for pattern recognition, Code Generation for framework output, Design System for component library, and Production for live application.</desc>
</svg> 